<svg width="38" height="38" viewBox="0 0 38 38" fill="none" xmlns="http://www.w3.org/2000/svg">
<path id="account_box" d="M4.41667 31.1875C6.29167 29.3472 8.47049 27.8976 10.9531 26.8385C13.4358 25.7795 16.1181 25.25 19 25.25C21.8819 25.25 24.5642 25.7795 27.0469 26.8385C29.5295 27.8976 31.7083 29.3472 33.5833 31.1875V4.41667H4.41667V31.1875ZM19 21.0833C21.0139 21.0833 22.7326 20.3715 24.1562 18.9479C25.5799 17.5243 26.2917 15.8056 26.2917 13.7917C26.2917 11.7778 25.5799 10.059 24.1562 8.63542C22.7326 7.21181 21.0139 6.5 19 6.5C16.9861 6.5 15.2674 7.21181 13.8438 8.63542C12.4201 10.059 11.7083 11.7778 11.7083 13.7917C11.7083 15.8056 12.4201 17.5243 13.8438 18.9479C15.2674 20.3715 16.9861 21.0833 19 21.0833ZM4.41667 37.75C3.27083 37.75 2.28993 37.342 1.47396 36.526C0.657986 35.7101 0.25 34.7292 0.25 33.5833V4.41667C0.25 3.27083 0.657986 2.28993 1.47396 1.47396C2.28993 0.657986 3.27083 0.25 4.41667 0.25H33.5833C34.7292 0.25 35.7101 0.657986 36.526 1.47396C37.342 2.28993 37.75 3.27083 37.75 4.41667V33.5833C37.75 34.7292 37.342 35.7101 36.526 36.526C35.7101 37.342 34.7292 37.75 33.5833 37.75H4.41667ZM8.58333 33.5833H29.4167V33.0625C27.9583 31.8472 26.3438 30.9358 24.5729 30.3281C22.8021 29.7205 20.9444 29.4167 19 29.4167C17.0556 29.4167 15.1979 29.7205 13.4271 30.3281C11.6562 30.9358 10.0417 31.8472 8.58333 33.0625V33.5833ZM19 16.9167C18.1319 16.9167 17.3941 16.6128 16.7865 16.0052C16.1788 15.3976 15.875 14.6597 15.875 13.7917C15.875 12.9236 16.1788 12.1858 16.7865 11.5781C17.3941 10.9705 18.1319 10.6667 19 10.6667C19.8681 10.6667 20.6059 10.9705 21.2135 11.5781C21.8212 12.1858 22.125 12.9236 22.125 13.7917C22.125 14.6597 21.8212 15.3976 21.2135 16.0052C20.6059 16.6128 19.8681 16.9167 19 16.9167Z" fill="white"/>
</svg>
