<svg width="40" height="38" viewBox="0 0 40 38" fill="none" xmlns="http://www.w3.org/2000/svg">
<g id="Agriculture" clip-path="url(#clip0_1_196)">
<g id="Group">
<g id="Group_2">
<path id="Vector" d="M32.5 19.0001C34.05 19.0001 35.4667 19.4434 36.6667 20.2034V12.6668C36.6667 10.9251 35.1667 9.50009 33.3334 9.50009H22.85L21.0834 7.82175L23.4334 5.58925L22.25 4.46509L16.3667 10.0543L17.55 11.1784L19.9 8.94592L21.6667 10.6243V14.2501C21.6667 15.9918 20.1667 17.4168 18.3334 17.4168H17.4334C19.0167 19.0951 20 21.3118 20 23.7501C20 24.2884 19.9334 24.8109 19.85 25.3334H25.0834C25.5 21.7709 28.65 19.0001 32.5 19.0001Z" fill="white"/>
<path id="Vector_2" d="M32.4998 20.5835C29.2832 20.5835 26.6665 23.0693 26.6665 26.1252C26.6665 29.181 29.2832 31.6668 32.4998 31.6668C35.7165 31.6668 38.3332 29.181 38.3332 26.1252C38.3332 23.0693 35.7165 20.5835 32.4998 20.5835ZM32.4998 28.5002C31.1165 28.5002 29.9998 27.4393 29.9998 26.1252C29.9998 24.811 31.1165 23.7502 32.4998 23.7502C33.8832 23.7502 34.9998 24.811 34.9998 26.1252C34.9998 27.4393 33.8832 28.5002 32.4998 28.5002Z" fill="white"/>
<path id="Vector_3" d="M6.66667 14.2502H15C15 12.5085 13.5 11.0835 11.6667 11.0835H6.66667C5.75 11.0835 5 11.796 5 12.6668C5 13.5377 5.75 14.2502 6.66667 14.2502Z" fill="white"/>
<path id="Vector_4" d="M16.3832 21.8818L16.0832 21.1377L17.6332 20.5835C16.8665 18.9052 15.4998 17.5593 13.7832 16.736L13.1165 18.1452L12.3498 17.8127L13.0165 16.3877C12.0998 16.0393 11.0665 15.8335 9.99984 15.8335C9.1165 15.8335 8.2665 16.0077 7.4665 16.2452L8.03317 17.686L7.24984 17.971L6.6665 16.4985C4.89984 17.2268 3.48317 18.5252 2.6165 20.156L4.09984 20.7893L3.74984 21.5177L2.24984 20.8843C1.88317 21.7552 1.6665 22.7368 1.6665 23.7502C1.6665 24.5893 1.84984 25.3968 2.09984 26.1568L3.6165 25.6185L3.9165 26.3627L2.3665 26.9168C3.13317 28.5952 4.49984 29.941 6.2165 30.7643L6.88317 29.3552L7.64984 29.6877L6.98317 31.1127C7.89984 31.461 8.93317 31.6668 9.99984 31.6668C10.8832 31.6668 11.7332 31.4927 12.5332 31.2552L11.9665 29.8143L12.7498 29.5293L13.3332 31.0018C15.0998 30.2735 16.5165 28.9752 17.3832 27.3443L15.8998 26.711L16.2498 25.9827L17.7498 26.616C18.1165 25.7452 18.3332 24.7635 18.3332 23.7502C18.3332 22.911 18.1498 22.1035 17.8998 21.3435L16.3832 21.8818ZM11.9165 28.136C9.3665 29.1335 6.43317 27.9935 5.38317 25.571C4.33317 23.1485 5.53317 20.3618 8.08317 19.3643C10.6332 18.3668 13.5665 19.5068 14.6165 21.9293C15.6832 24.3518 14.4665 27.1385 11.9165 28.136Z" fill="white"/>
</g>
</g>
</g>
<defs>
<clipPath id="clip0_1_196">
<rect width="40" height="38" fill="white"/>
</clipPath>
</defs>
</svg>
