<svg width="38" height="38" viewBox="0 0 38 38" fill="none" xmlns="http://www.w3.org/2000/svg">
<path id="analytics" d="M8.58333 29.4167H12.75V19H8.58333V29.4167ZM25.25 29.4167H29.4167V8.58333H25.25V29.4167ZM16.9167 29.4167H21.0833V23.1667H16.9167V29.4167ZM16.9167 19H21.0833V14.8333H16.9167V19ZM4.41667 37.75C3.27083 37.75 2.28993 37.342 1.47396 36.526C0.657986 35.7101 0.25 34.7292 0.25 33.5833V4.41667C0.25 3.27083 0.657986 2.28993 1.47396 1.47396C2.28993 0.657986 3.27083 0.25 4.41667 0.25H33.5833C34.7292 0.25 35.7101 0.657986 36.526 1.47396C37.342 2.28993 37.75 3.27083 37.75 4.41667V33.5833C37.75 34.7292 37.342 35.7101 36.526 36.526C35.7101 37.342 34.7292 37.75 33.5833 37.75H4.41667ZM4.41667 33.5833H33.5833V4.41667H4.41667V33.5833Z" fill="white"/>
</svg>
