<svg width="25" height="25" viewBox="0 0 25 25" fill="none" xmlns="http://www.w3.org/2000/svg">
<g id="&#208;&#161;&#208;&#187;&#208;&#190;&#208;&#185;_1">
<g id="Group">
<g id="Group_2">
<g id="Group_3">
<path id="Vector" fill-rule="evenodd" clip-rule="evenodd" d="M12.5058 12.4644C12.1257 12.4649 11.8008 12.6002 11.5312 12.8707C11.2607 13.1403 11.1252 13.4652 11.1249 13.8452C11.1252 14.2262 11.2607 14.552 11.5312 14.8226C11.8008 15.0921 12.1257 15.2266 12.5058 15.226C12.887 15.2266 13.2127 15.0921 13.4834 14.8226C13.7529 14.552 13.8874 14.2262 13.8869 13.8452C13.8875 13.4652 13.7529 13.1403 13.4834 12.8707C13.2127 12.6003 12.887 12.4649 12.5058 12.4644ZM13.6226 9.23679H13.6879C14.1893 9.24861 14.626 9.32908 14.9979 9.4783C15.3768 9.63162 15.6883 9.85701 15.9328 10.1545H20.3315V8.88166C19.7931 8.87146 19.2958 8.8468 18.8397 8.80779C18.5157 8.78 18.2126 8.74495 17.9304 8.70261C17.1241 8.58391 16.7207 8.44094 16.7198 8.27361C16.7207 8.10715 17.1241 7.96414 17.9304 7.8446C18.6118 7.74597 19.4123 7.68914 20.3315 7.67415V7.61448C20.3306 7.54436 20.3411 7.47908 20.3627 7.41838C20.3903 7.33254 20.4377 7.25486 20.5048 7.18542C20.6225 7.06853 20.7645 7.01072 20.931 7.01208C21.0995 7.01072 21.2436 7.06853 21.363 7.18542C21.4765 7.30041 21.5361 7.43772 21.5419 7.59739C21.5419 7.60305 21.5419 7.60872 21.5419 7.61453V7.67419C21.8541 7.68293 22.1524 7.69714 22.437 7.71682C22.9231 7.74407 23.3673 7.78669 23.7698 7.84465C23.7929 7.849 23.8156 7.85374 23.8379 7.85886C24.6009 7.97468 24.9835 8.11291 24.986 8.27366C24.9835 8.43625 24.6009 8.57546 23.8379 8.69133C23.8156 8.69548 23.7929 8.69924 23.7698 8.70266C23.1325 8.79841 22.3899 8.85618 21.5419 8.876V10.1546H22.0705C22.238 10.1552 22.3811 10.2148 22.4996 10.3336C22.6184 10.4511 22.6781 10.5932 22.6786 10.7598C22.6782 10.8783 22.6479 10.9844 22.5876 11.078C22.4844 11.2153 22.3347 11.3118 22.1387 11.3678C20.4793 11.7656 18.8198 12.1634 17.1603 12.5611L19.0614 16.5446C19.0724 16.5642 19.0828 16.5843 19.0926 16.6042C19.5482 17.8852 19.2309 18.911 18.1407 19.6813C18.0036 19.7797 17.8531 19.8157 17.6889 19.7893C17.5266 19.7593 17.3977 19.675 17.3024 19.5364C17.204 19.3997 17.1679 19.2491 17.1944 19.0846C17.2229 18.9214 17.3054 18.7917 17.4417 18.6954C18.0285 18.2747 18.198 17.7158 17.9503 17.0191L15.9527 12.851L15.4327 12.9789V15.0557C15.4329 15.2039 15.3959 15.3422 15.3219 15.4706V15.4734C15.247 15.601 15.1456 15.7014 15.0178 15.7746L12.9208 16.9821V16.985C12.7911 17.0587 12.6528 17.0957 12.5059 17.0958C12.3583 17.0946 12.2199 17.0568 12.0911 16.9822L9.99683 15.7718L9.99107 15.769C9.86484 15.694 9.76543 15.5927 9.69273 15.465C9.61856 15.3365 9.58174 15.1991 9.58193 15.053V12.9788L9.05913 12.851L7.06148 17.0191C6.81377 17.7158 6.9832 18.2746 7.57007 18.6954C7.7064 18.7916 7.78882 18.9214 7.81729 19.0846C7.84395 19.2491 7.80786 19.3997 7.70942 19.5363C7.61416 19.675 7.4853 19.7592 7.3229 19.7893C7.15874 19.8157 7.00815 19.7796 6.87114 19.6813C5.78091 18.911 5.46357 17.8852 5.91924 16.6042C5.929 16.5842 5.93945 16.5642 5.95044 16.5446L7.85151 12.5611C6.19199 12.1633 4.53257 11.7655 2.87305 11.3677C2.677 11.3118 2.52739 11.2153 2.42417 11.078C2.36392 10.9843 2.33359 10.8782 2.33315 10.7597C2.33369 10.5932 2.39331 10.4511 2.51221 10.3335C2.63076 10.2147 2.77383 10.1551 2.94136 10.1545H3.46982V8.8759C2.62178 8.85608 1.8792 8.79831 1.24209 8.70256C1.21899 8.69914 1.19624 8.69539 1.17393 8.69123C0.410938 8.57537 0.0283203 8.43616 0.0258789 8.27356C0.0283203 8.11282 0.410938 7.97458 1.17393 7.85876C1.19624 7.85364 1.21899 7.8489 1.24209 7.84456C1.64458 7.78655 2.08877 7.74392 2.57471 7.71672C2.85942 7.69705 3.15776 7.68284 3.46982 7.6741V7.61443C3.46982 7.60867 3.46982 7.603 3.46982 7.59729C3.47583 7.43762 3.53545 7.30037 3.64888 7.18533C3.76831 7.06843 3.91226 7.01062 4.08076 7.01199C4.24741 7.01062 4.38945 7.06843 4.50698 7.18533C4.57412 7.25481 4.62153 7.33249 4.64907 7.41829C4.67085 7.47893 4.68125 7.54426 4.68037 7.61438V7.67405C5.59966 7.68909 6.4001 7.74592 7.08149 7.84451C7.88779 7.96404 8.29126 8.10705 8.29204 8.27351C8.29126 8.44084 7.88779 8.58381 7.08149 8.70251C6.79922 8.74485 6.49609 8.77991 6.17222 8.80769C5.71597 8.8467 5.21875 8.87136 4.68037 8.88157V10.1544H9.0791C9.32344 9.85691 9.63511 9.63152 10.014 9.4782C10.3859 9.32893 10.8226 9.24851 11.324 9.23669H11.3894C11.4466 9.23479 11.5052 9.23479 11.5655 9.23669H13.4465C13.5065 9.23489 13.5653 9.23489 13.6226 9.23679Z" fill="white"/>
</g>
<g id="Group_4">
<path id="Vector_2" fill-rule="evenodd" clip-rule="evenodd" d="M12.503 13.1548C12.6935 13.1555 12.8564 13.2237 12.9917 13.3593C13.1265 13.4936 13.1937 13.6556 13.1936 13.8452C13.1937 14.0356 13.1265 14.1985 12.9917 14.3339C12.8564 14.4686 12.6935 14.5359 12.503 14.5355C12.3134 14.5359 12.1515 14.4686 12.017 14.3339C11.8813 14.1986 11.8131 14.0357 11.8125 13.8452C11.8132 13.6556 11.8813 13.4936 12.017 13.3593C12.1514 13.2237 12.3134 13.1555 12.503 13.1548Z" fill="white"/>
</g>
</g>
</g>
</g>
</svg>
