<svg width="20" height="20" viewBox="0 0 20 20" fill="none" xmlns="http://www.w3.org/2000/svg">
<g id="Group 95">
<path id="Vector" d="M3.33304 17.6421C3.33246 17.3699 3.24679 17.1047 3.08802 16.8836C2.92925 16.6625 2.70534 16.4966 2.44762 16.4091C2.67601 16.2439 2.8462 16.0107 2.93376 15.7427C3.02132 15.4748 3.02174 15.186 2.93497 14.9178C2.8482 14.6496 2.6787 14.4158 2.45081 14.25C2.22291 14.0842 1.94834 13.9949 1.66652 13.9949C1.38471 13.9949 1.11014 14.0842 0.882243 14.25C0.654347 14.4158 0.484845 14.6496 0.398075 14.9178C0.311305 15.186 0.311731 15.4748 0.399291 15.7427C0.486851 16.0107 0.657042 16.2439 0.885426 16.4091C0.627708 16.4966 0.403792 16.6625 0.245024 16.8836C0.0862565 17.1047 0.000584057 17.3699 0 17.6421V20.0001H3.33304V17.6421Z" fill="white"/>
<path id="Vector_2" d="M5.33203 17.6421V20.0001H8.66507V17.6421C8.66449 17.3699 8.57882 17.1047 8.42005 16.8836C8.26129 16.6625 8.03737 16.4966 7.77965 16.4091C8.00804 16.2439 8.17823 16.0107 8.26579 15.7427C8.35335 15.4748 8.35378 15.186 8.26701 14.9178C8.18024 14.6496 8.01073 14.4158 7.78284 14.25C7.55494 14.0842 7.28037 13.9949 6.99856 13.9949C6.71674 13.9949 6.44217 14.0842 6.21427 14.25C5.98638 14.4158 5.81688 14.6496 5.73011 14.9178C5.64334 15.186 5.64376 15.4748 5.73132 15.7427C5.81888 16.0107 5.98907 16.2439 6.21746 16.4091C5.95974 16.4966 5.73582 16.6625 5.57706 16.8836C5.41829 17.1047 5.33262 17.3699 5.33203 17.6421Z" fill="white"/>
<path id="Vector_3" d="M5.66507 17.6421C5.66449 17.3699 5.57882 17.1047 5.42005 16.8836C5.26129 16.6625 5.03737 16.4966 4.77965 16.4091C5.00804 16.2439 5.17823 16.0107 5.26579 15.7427C5.35335 15.4748 5.35378 15.186 5.26701 14.9178C5.18024 14.6496 5.01073 14.4158 4.78284 14.25C4.55494 14.0842 4.28037 13.9949 3.99856 13.9949C3.71674 13.9949 3.44217 14.0842 3.21427 14.25C2.98638 14.4158 2.81688 14.6496 2.73011 14.9178C2.64334 15.186 2.64376 15.4748 2.73132 15.7427C2.81888 16.0107 2.98907 16.2439 3.21746 16.4091C2.95974 16.4966 2.73582 16.6625 2.57706 16.8836C2.41829 17.1047 2.33262 17.3699 2.33203 17.6421V20.0001H5.66507V17.6421Z" fill="white"/>
<path id="Vector_4" d="M20.001 17.6421C20.0004 17.3699 19.9148 17.1047 19.756 16.8836C19.5972 16.6625 19.3733 16.4966 19.1156 16.4091C19.344 16.2439 19.5142 16.0107 19.6017 15.7427C19.6893 15.4748 19.6897 15.186 19.6029 14.9178C19.5162 14.6496 19.3467 14.4158 19.1188 14.25C18.8909 14.0842 18.6163 13.9949 18.3345 13.9949C18.0527 13.9949 17.7781 14.0842 17.5502 14.25C17.3223 14.4158 17.1528 14.6496 17.066 14.9178C16.9793 15.186 16.9797 15.4748 17.0673 15.7427C17.1548 16.0107 17.325 16.2439 17.5534 16.4091C17.2957 16.4966 17.0718 16.6625 16.913 16.8836C16.7542 17.1047 16.6686 17.3699 16.668 17.6421V20.0001H20.001V17.6421Z" fill="white"/>
<path id="Vector_5" d="M15.6653 9.50081C15.5327 9.50066 15.4057 9.44793 15.3119 9.35418C15.2182 9.26043 15.1655 9.13332 15.1653 9.00073H14.832C14.832 9.22178 14.9198 9.43377 15.0761 9.59007C15.2324 9.74638 15.4443 9.83419 15.6653 9.83419C15.8863 9.83419 16.0982 9.74638 16.2545 9.59007C16.4108 9.43377 16.4986 9.22178 16.4986 9.00073H16.1652C16.1651 9.13332 16.1124 9.26043 16.0187 9.35418C15.9249 9.44793 15.7978 9.50066 15.6653 9.50081Z" fill="white"/>
<path id="Vector_6" d="M14.8333 8.0049C15.0174 8.0049 15.1666 7.85564 15.1666 7.67152C15.1666 7.48739 15.0174 7.33813 14.8333 7.33813C14.6492 7.33813 14.5 7.48739 14.5 7.67152C14.5 7.85564 14.6492 8.0049 14.8333 8.0049Z" fill="white"/>
<path id="Vector_7" d="M10.6678 4.66825L9.66788 3.33472L8.66797 4.66825L9.66788 6.00177L10.6678 4.66825Z" fill="white"/>
<path id="Vector_8" d="M19.6661 8.46905V3.5327C19.6661 3.06878 19.5747 2.6094 19.3972 2.1808C19.2197 1.75219 18.9596 1.36275 18.6317 1.0347C18.3037 0.706662 17.9144 0.446445 17.4859 0.26891C17.0575 0.0913753 16.5982 -4.37803e-07 16.1345 0H3.86754C3.40376 -4.37803e-07 2.94453 0.0913753 2.51605 0.26891C2.08758 0.446445 1.69826 0.706662 1.37032 1.0347C1.04238 1.36275 0.782243 1.75219 0.604764 2.1808C0.427284 2.6094 0.335937 3.06878 0.335938 3.5327V8.46905C0.335939 9.40598 0.708018 10.3045 1.37032 10.967C2.03262 11.6296 2.9309 12.0018 3.86754 12.0018H16.1345C17.0711 12.0018 17.9694 11.6296 18.6317 10.967C19.294 10.3045 19.6661 9.40598 19.6661 8.46905ZM13.9685 1.62438C14.1649 1.43765 14.4254 1.33352 14.6963 1.33352C14.9672 1.33352 15.2278 1.43765 15.4241 1.62438L15.6667 1.85846L15.9093 1.62438C16.1057 1.43765 16.3662 1.33352 16.6371 1.33352C16.908 1.33352 17.1686 1.43765 17.3649 1.62438C17.4602 1.71485 17.536 1.82377 17.5878 1.94449C17.6397 2.06521 17.6664 2.19522 17.6664 2.3266C17.6664 2.45799 17.6397 2.588 17.5878 2.70872C17.536 2.82944 17.4602 2.93835 17.3649 3.02882L15.6667 4.66735L13.9685 3.02882C13.8733 2.93835 13.7974 2.82944 13.7456 2.70872C13.6938 2.588 13.6671 2.45799 13.6671 2.3266C13.6671 2.19522 13.6938 2.06521 13.7456 1.94449C13.7974 1.82377 13.8733 1.71485 13.9685 1.62438ZM3.82763 1.34234C3.82284 1.48366 3.82038 1.61855 3.82038 1.6718C3.82312 2.23807 4.04354 2.78159 4.43598 3.18973C4.82841 3.59786 5.36278 3.83933 5.92834 3.86409C5.819 4.26128 5.58964 4.61496 5.27164 4.87675C4.95364 5.13854 4.56254 5.29563 4.15186 5.32654C4.19804 5.1507 4.22279 4.96992 4.22558 4.78813C4.2249 4.22346 4.01524 3.67905 3.63704 3.25985C3.25884 2.84066 2.73887 2.57639 2.17741 2.51799C2.32281 2.19273 2.55246 1.91224 2.84259 1.70554C3.13272 1.49885 3.4728 1.37346 3.82763 1.34234ZM2.06602 2.84099C2.56065 2.87303 3.02458 3.09205 3.36373 3.45364C3.70288 3.81523 3.89185 4.29231 3.89231 4.78813C3.89 4.9699 3.86203 5.15042 3.80924 5.32436C3.52198 5.29762 3.24396 5.20876 2.99442 5.06393C2.74488 4.91911 2.52977 4.72179 2.36399 4.48561C2.1982 4.24943 2.08569 3.98004 2.03424 3.69607C1.98279 3.41211 1.99363 3.12035 2.06602 2.84099ZM6.00166 9.00132H5.00183L5.33511 10.6682L3.33544 9.00132H2.00233V6.66764H6.00166V9.00132ZM5.989 3.55366L5.9893 3.53437C5.50078 3.52517 5.03524 3.32516 4.69221 2.9771C4.34919 2.62904 4.1559 2.16055 4.15367 1.67179C4.15367 1.62426 4.15597 1.48392 4.16064 1.34155C4.42771 1.36195 4.68792 1.43599 4.92573 1.55926C5.16354 1.68253 5.37407 1.85248 5.54473 2.05897C5.7154 2.26546 5.84271 2.50424 5.91904 2.76106C5.99537 3.01787 6.01916 3.28744 5.989 3.55366ZM12.0007 7.66779H7.33477V1.66691H12.0007V7.66779ZM13.3338 8.33455C13.3338 7.87299 13.4706 7.4218 13.7269 7.03803C13.9833 6.65426 14.3477 6.35515 14.7739 6.17852C15.2002 6.00189 15.6693 5.95567 16.1219 6.04572C16.5744 6.13576 16.9901 6.35802 17.3164 6.68439C17.6426 7.01076 17.8648 7.42659 17.9548 7.87927C18.0449 8.33196 17.9987 8.80119 17.8221 9.22761C17.6455 9.65403 17.3465 10.0185 16.9628 10.2749C16.5792 10.5314 16.1281 10.6682 15.6667 10.6682C15.048 10.6682 14.4546 10.4224 14.0171 9.98471C13.5796 9.54706 13.3338 8.95348 13.3338 8.33455Z" fill="white"/>
<path id="Vector_9" d="M16.5013 8.0049C16.6854 8.0049 16.8346 7.85564 16.8346 7.67152C16.8346 7.48739 16.6854 7.33813 16.5013 7.33813C16.3172 7.33813 16.168 7.48739 16.168 7.67152C16.168 7.85564 16.3172 8.0049 16.5013 8.0049Z" fill="white"/>
</g>
</svg>
