<svg width="21" height="21" viewBox="0 0 21 21" fill="none" xmlns="http://www.w3.org/2000/svg">
<path id="public" d="M10.4167 20.8333C8.97569 20.8333 7.62153 20.5599 6.35417 20.013C5.08681 19.4661 3.98437 18.724 3.04687 17.7865C2.10937 16.849 1.36719 15.7465 0.820312 14.4792C0.273437 13.2118 0 11.8576 0 10.4167C0 8.9757 0.273437 7.62153 0.820312 6.35417C1.36719 5.08681 2.10937 3.98438 3.04687 3.04688C3.98437 2.10938 5.08681 1.36719 6.35417 0.820313C7.62153 0.273438 8.97569 0 10.4167 0C11.8576 0 13.2118 0.273438 14.4792 0.820313C15.7465 1.36719 16.849 2.10938 17.7865 3.04688C18.724 3.98438 19.4661 5.08681 20.013 6.35417C20.5599 7.62153 20.8333 8.9757 20.8333 10.4167C20.8333 11.8576 20.5599 13.2118 20.013 14.4792C19.4661 15.7465 18.724 16.849 17.7865 17.7865C16.849 18.724 15.7465 19.4661 14.4792 20.013C13.2118 20.5599 11.8576 20.8333 10.4167 20.8333ZM9.375 18.6979V16.6667C8.80208 16.6667 8.31163 16.4627 7.90365 16.0547C7.49566 15.6467 7.29167 15.1563 7.29167 14.5833V13.5417L2.29167 8.54167C2.23958 8.85417 2.19184 9.16667 2.14844 9.47917C2.10503 9.79167 2.08333 10.1042 2.08333 10.4167C2.08333 12.5174 2.77344 14.3576 4.15365 15.9375C5.53385 17.5174 7.27431 18.4375 9.375 18.6979ZM16.5625 16.0417C16.9097 15.6597 17.2222 15.2474 17.5 14.8047C17.7778 14.362 18.0078 13.9019 18.1901 13.4245C18.3724 12.947 18.5113 12.4566 18.6068 11.9531C18.7023 11.4497 18.75 10.9375 18.75 10.4167C18.75 8.71528 18.2769 7.16146 17.3307 5.75521C16.3845 4.34896 15.1215 3.33333 13.5417 2.70833V3.125C13.5417 3.69792 13.3377 4.18837 12.9297 4.59635C12.5217 5.00434 12.0312 5.20833 11.4583 5.20833H9.375V7.29167C9.375 7.58681 9.27517 7.8342 9.07552 8.03385C8.87587 8.23351 8.62847 8.33333 8.33333 8.33333H6.25V10.4167H12.5C12.7951 10.4167 13.0425 10.5165 13.2422 10.7161C13.4418 10.9158 13.5417 11.1632 13.5417 11.4583V14.5833H14.5833C15.0347 14.5833 15.4427 14.7179 15.8073 14.987C16.1719 15.2561 16.4236 15.6076 16.5625 16.0417Z" fill="white"/>
</svg>
