<svg width="52" height="41" viewBox="0 0 52 41" fill="none" xmlns="http://www.w3.org/2000/svg">
<path d="M26 9.11111V0H0V41H52V9.11111H26ZM10.4 36.4444H5.2V31.8889H10.4V36.4444ZM10.4 27.3333H5.2V22.7778H10.4V27.3333ZM10.4 18.2222H5.2V13.6667H10.4V18.2222ZM10.4 9.11111H5.2V4.55556H10.4V9.11111ZM20.8 36.4444H15.6V31.8889H20.8V36.4444ZM20.8 27.3333H15.6V22.7778H20.8V27.3333ZM20.8 18.2222H15.6V13.6667H20.8V18.2222ZM20.8 9.11111H15.6V4.55556H20.8V9.11111ZM46.8 36.4444H26V31.8889H31.2V27.3333H26V22.7778H31.2V18.2222H26V13.6667H46.8V36.4444ZM41.6 18.2222H36.4V22.7778H41.6V18.2222ZM41.6 27.3333H36.4V31.8889H41.6V27.3333Z" fill="white"/>
</svg>
