<svg width="33" height="36" viewBox="0 0 33 36" fill="none" xmlns="http://www.w3.org/2000/svg">
<g id="Save" clip-path="url(#clip0_1_53)">
<path id="Vector" d="M23.25 0H6.75C5.22375 0 4 1.35 4 3V24C4 25.65 5.22375 27 6.75 27H26C27.5125 27 28.75 25.65 28.75 24V6L23.25 0ZM16.375 24C14.0925 24 12.25 21.99 12.25 19.5C12.25 17.01 14.0925 15 16.375 15C18.6575 15 20.5 17.01 20.5 19.5C20.5 21.99 18.6575 24 16.375 24ZM20.5 9H6.75V3H20.5V9Z" fill="white"/>
</g>
<defs>
<clipPath id="clip0_1_53">
<rect width="33" height="36" fill="white"/>
</clipPath>
</defs>
</svg>
